<svg width="116" height="39" viewBox="0 0 116 39" fill="none" xmlns="http://www.w3.org/2000/svg">
<path d="M25.6739 5.44678C24.0292 9.0355 22.4597 18.2498 29.3391 26.3972C31.8296 23.2611 34.5832 14.6805 25.6739 5.44678Z" fill="#406C47"/>
<path d="M31.2056 34.7773C30.1088 30.6093 32.022 20.3518 47.9615 8.99219C46.7835 17.8933 41.6856 34.7773 31.2056 34.7773Z" fill="#406C47"/>
<path d="M27.4932 35.8809C9.93033 38.1552 -0.352004 15.6067 0.238384 3.30592C1.92378 3.63255 10.9581 7.6746 19.9566 17.9518C28.5124 29.7789 31.0641 35.4185 27.4932 35.8809Z" fill="#406C47"/>
<path d="M57.5906 30.2479C57.4194 30.2479 57.2784 30.1925 57.1676 30.0817C57.0568 29.9709 57.0014 29.8299 57.0014 29.6587V19.0371C57.0014 18.8659 57.0568 18.7249 57.1676 18.6141C57.2784 18.5033 57.4194 18.4479 57.5906 18.4479H60.6124C61.3578 18.4479 62.0175 18.6141 62.5917 18.9465C63.1658 19.2688 63.614 19.717 63.9364 20.2912C64.2587 20.8653 64.4198 21.5301 64.4198 22.2855C64.4198 23.0208 64.2587 23.6756 63.9364 24.2497C63.614 24.8138 63.1658 25.262 62.5917 25.5944C62.0175 25.9167 61.3578 26.0779 60.6124 26.0779H58.1799V29.6587C58.1799 29.8299 58.1245 29.9709 58.0137 30.0817C57.9029 30.1925 57.7618 30.2479 57.5906 30.2479ZM58.1799 24.9447H60.6124C61.1261 24.9447 61.5844 24.8339 61.9873 24.6123C62.3902 24.3806 62.7025 24.0634 62.9241 23.6604C63.1557 23.2575 63.2716 22.7992 63.2716 22.2855C63.2716 21.7517 63.1557 21.2833 62.9241 20.8804C62.7025 20.4775 62.3902 20.1602 61.9873 19.9285C61.5844 19.6969 61.1261 19.581 60.6124 19.581H58.1799V24.9447ZM67.5696 30.2479C67.1667 30.2479 66.8041 30.1371 66.4818 29.9155C66.1695 29.6939 65.9227 29.3867 65.7414 28.9939C65.5702 28.6011 65.4846 28.1478 65.4846 27.6341V19.022C65.4846 18.8508 65.5349 18.7148 65.6357 18.6141C65.7465 18.5033 65.8875 18.4479 66.0587 18.4479C66.23 18.4479 66.3659 18.5033 66.4667 18.6141C66.5775 18.7148 66.6329 18.8508 66.6329 19.022V27.6341C66.6329 28.0672 66.7185 28.4197 66.8897 28.6917C67.071 28.9637 67.2976 29.0996 67.5696 29.0996H67.9473C68.0984 29.0996 68.2193 29.155 68.3099 29.2658C68.4006 29.3666 68.4459 29.5026 68.4459 29.6738C68.4459 29.845 68.3805 29.986 68.2495 30.0968C68.1286 30.1976 67.9675 30.2479 67.766 30.2479H67.5696ZM72.92 30.3235C72.1444 30.3235 71.4494 30.1422 70.8349 29.7795C70.2205 29.4069 69.732 28.9032 69.3694 28.2687C69.0168 27.6341 68.8406 26.9189 68.8406 26.1232C68.8406 25.3174 69.0219 24.5972 69.3845 23.9626C69.7572 23.3281 70.2608 22.8295 70.8954 22.4668C71.5299 22.0942 72.2451 21.9078 73.0408 21.9078C73.8366 21.9078 74.5467 22.0942 75.1712 22.4668C75.8058 22.8295 76.3044 23.3281 76.667 23.9626C77.0397 24.5972 77.231 25.3174 77.2411 26.1232L76.7727 26.4858C76.7727 27.211 76.6015 27.8658 76.259 28.45C75.9266 29.0241 75.4683 29.4824 74.8841 29.8249C74.31 30.1573 73.6553 30.3235 72.92 30.3235ZM73.0408 29.2658C73.625 29.2658 74.1438 29.1299 74.5971 28.8579C75.0604 28.5859 75.423 28.2133 75.6849 27.7398C75.9569 27.2564 76.0928 26.7175 76.0928 26.1232C76.0928 25.5188 75.9569 24.98 75.6849 24.5065C75.423 24.0331 75.0604 23.6604 74.5971 23.3885C74.1438 23.1065 73.625 22.9654 73.0408 22.9654C72.4667 22.9654 71.948 23.1065 71.4846 23.3885C71.0213 23.6604 70.6536 24.0331 70.3817 24.5065C70.1097 24.98 69.9737 25.5188 69.9737 26.1232C69.9737 26.7175 70.1097 27.2564 70.3817 27.7398C70.6536 28.2133 71.0213 28.5859 71.4846 28.8579C71.948 29.1299 72.4667 29.2658 73.0408 29.2658ZM76.6519 30.2479C76.4806 30.2479 76.3396 30.1976 76.2288 30.0968C76.118 29.986 76.0626 29.845 76.0626 29.6738V27.0902L76.3497 25.8966L77.2411 26.1232V29.6738C77.2411 29.845 77.1857 29.986 77.0749 30.0968C76.9641 30.1976 76.8231 30.2479 76.6519 30.2479ZM86.2751 30.2479C86.1039 30.2479 85.9628 30.1925 85.852 30.0817C85.7412 29.9709 85.6858 29.8349 85.6858 29.6738V25.7455C85.6858 25.121 85.565 24.6073 85.3232 24.2044C85.0916 23.8015 84.7692 23.4993 84.3563 23.2978C83.9534 23.0964 83.495 22.9957 82.9813 22.9957C82.4878 22.9957 82.0396 23.0913 81.6367 23.2827C81.2438 23.4741 80.9316 23.736 80.6999 24.0684C80.4682 24.4008 80.3524 24.7785 80.3524 25.2016H79.5214C79.5416 24.567 79.7128 24.0029 80.0351 23.5094C80.3574 23.0057 80.7855 22.6129 81.3194 22.3309C81.8532 22.0388 82.4475 21.8927 83.1022 21.8927C83.8174 21.8927 84.457 22.0438 85.021 22.346C85.5851 22.6381 86.0283 23.0712 86.3506 23.6453C86.683 24.2195 86.8492 24.9195 86.8492 25.7455V29.6738C86.8492 29.8349 86.7938 29.9709 86.683 30.0817C86.5722 30.1925 86.4362 30.2479 86.2751 30.2479ZM79.7783 30.2479C79.597 30.2479 79.4509 30.1976 79.3401 30.0968C79.2394 29.986 79.189 29.845 79.189 29.6738V22.5726C79.189 22.3913 79.2394 22.2503 79.3401 22.1496C79.4509 22.0388 79.597 21.9834 79.7783 21.9834C79.9495 21.9834 80.0855 22.0388 80.1862 22.1496C80.297 22.2503 80.3524 22.3913 80.3524 22.5726V29.6738C80.3524 29.845 80.297 29.986 80.1862 30.0968C80.0855 30.1976 79.9495 30.2479 79.7783 30.2479ZM92.3326 30.2479C91.7988 30.2479 91.3203 30.122 90.8973 29.8702C90.4843 29.6184 90.1569 29.2759 89.9152 28.8428C89.6734 28.3996 89.5526 27.896 89.5526 27.3319V19.9437C89.5526 19.7724 89.6029 19.6314 89.7037 19.5206C89.8145 19.4098 89.9555 19.3544 90.1267 19.3544C90.2979 19.3544 90.439 19.4098 90.5498 19.5206C90.6606 19.6314 90.716 19.7724 90.716 19.9437V27.3319C90.716 27.8456 90.8671 28.2687 91.1692 28.6011C91.4714 28.9234 91.8592 29.0845 92.3326 29.0845H92.7406C92.9017 29.0845 93.0327 29.1399 93.1334 29.2507C93.2341 29.3615 93.2845 29.5026 93.2845 29.6738C93.2845 29.845 93.224 29.986 93.1032 30.0968C92.9823 30.1976 92.8312 30.2479 92.6499 30.2479H92.3326ZM88.5705 23.2978C88.4194 23.2978 88.2935 23.2525 88.1928 23.1619C88.0921 23.0611 88.0417 22.9403 88.0417 22.7992C88.0417 22.6482 88.0921 22.5273 88.1928 22.4366C88.2935 22.3359 88.4194 22.2855 88.5705 22.2855H92.4233C92.5744 22.2855 92.7003 22.3359 92.801 22.4366C92.9017 22.5273 92.9521 22.6482 92.9521 22.7992C92.9521 22.9403 92.9017 23.0611 92.801 23.1619C92.7003 23.2525 92.5744 23.2978 92.4233 23.2978H88.5705ZM96.2837 33.8438C96.2032 33.8438 96.1125 33.8237 96.0118 33.7834C95.6693 33.6323 95.5736 33.3906 95.7247 33.0582L100.605 22.3006C100.756 21.9783 100.998 21.8877 101.33 22.0287C101.673 22.1697 101.768 22.4064 101.617 22.7388L96.7219 33.4963C96.6212 33.728 96.4751 33.8438 96.2837 33.8438ZM97.9608 29.9911C97.8097 30.0616 97.6687 30.0767 97.5378 30.0364C97.4068 29.986 97.3011 29.8853 97.2205 29.7342L93.8512 22.7539C93.7807 22.6028 93.7706 22.4618 93.821 22.3309C93.8714 22.1999 93.9721 22.0992 94.1232 22.0287C94.2743 21.9582 94.4153 21.9481 94.5462 21.9985C94.6772 22.0388 94.7779 22.1344 94.8484 22.2855L98.1572 29.2658C98.2378 29.4169 98.263 29.558 98.2328 29.6889C98.2026 29.8198 98.1119 29.9206 97.9608 29.9911ZM102.675 21.6812C102.554 21.6812 102.448 21.6409 102.358 21.5603C102.277 21.4697 102.237 21.3639 102.237 21.243L102.086 19.022C102.086 18.8609 102.141 18.7249 102.252 18.6141C102.373 18.5033 102.514 18.4479 102.675 18.4479C102.836 18.4479 102.972 18.5033 103.083 18.6141C103.204 18.7249 103.264 18.8609 103.264 19.022L103.113 21.243C103.113 21.3639 103.068 21.4697 102.977 21.5603C102.897 21.6409 102.796 21.6812 102.675 21.6812ZM110.039 30.2479C109.918 30.2479 109.817 30.2278 109.737 30.1875C109.666 30.1472 109.591 30.0767 109.51 29.976L106.896 26.652L106.443 26.2592L103.814 22.9201C103.703 22.7892 103.648 22.6532 103.648 22.5122C103.658 22.3712 103.708 22.2503 103.799 22.1496C103.889 22.0388 104.02 21.9834 104.192 21.9834C104.363 21.9834 104.509 22.0438 104.63 22.1647L107.168 25.4131L107.576 25.7455L110.386 29.3414C110.517 29.5026 110.573 29.6536 110.553 29.7947C110.532 29.9357 110.467 30.0465 110.356 30.1271C110.255 30.2076 110.15 30.2479 110.039 30.2479ZM104.056 30.2479C103.895 30.2479 103.764 30.1976 103.663 30.0968C103.572 29.9961 103.522 29.8752 103.512 29.7342C103.512 29.5932 103.567 29.4572 103.678 29.3263L106.458 25.8512L107.108 26.7124L104.464 30.0666C104.373 30.1875 104.237 30.2479 104.056 30.2479ZM107.591 26.3196L106.851 25.5642L109.465 22.2553C109.535 22.1546 109.611 22.0841 109.691 22.0438C109.782 22.0035 109.873 21.9834 109.963 21.9834C110.135 21.9834 110.265 22.0388 110.356 22.1496C110.447 22.2503 110.487 22.3762 110.477 22.5273C110.477 22.6683 110.427 22.8043 110.326 22.9352L107.591 26.3196Z" fill="#406C47"/>
</svg>
